<?xml version="1.0" encoding="UTF-8"?>
<svg xmlns="http://www.w3.org/2000/svg" xmlns:xlink="http://www.w3.org/1999/xlink" width="92px" height="94px" viewBox="0 0 92 94" version="1.1">
<g id="surface1">
<path style=" stroke:none;fill-rule:nonzero;fill:rgb(60%,60%,60%);fill-opacity:1;" d="M 72.882812 21.777344 C 72.320312 21.777344 71.75 21.777344 71.1875 21.855469 C 68.570312 12.730469 61.261719 6.582031 53.03125 6.578125 C 51.925781 6.585938 50.816406 6.65625 49.71875 6.796875 C 45.375 2.386719 39.808594 -0.0273438 34.058594 0 C 21.46875 0 11.1875 10.511719 8.996094 25.3125 C 3.542969 29.378906 0 36.136719 0 42.753906 C 0.117188 54.445312 8.304688 63.824219 18.304688 63.714844 L 72.882812 63.714844 C 83.285156 63.714844 92.066406 54.125 92.066406 42.753906 C 92.066406 31.382812 83.285156 21.777344 72.882812 21.777344 Z M 72.882812 21.777344 "/>
<path style=" stroke:none;fill-rule:evenodd;fill:rgb(46.666667%,46.666667%,46.666667%);fill-opacity:1;" d="M 84.734375 52.242188 C 83.710938 54.757812 82.359375 57.078125 80.738281 59.117188 C 84.070312 57.199219 86.761719 54.035156 88.386719 50.125 C 92.105469 40.976562 88.476562 30.40625 80.292969 25.800781 C 86.800781 31.085938 88.863281 42.085938 84.734375 52.242188 Z M 84.734375 52.242188 "/>
<path style=" stroke:none;fill-rule:nonzero;fill:rgb(0%,73.72549%,83.137255%);fill-opacity:1;" d="M 15.832031 76.921875 C 15.320312 79.21875 13.335938 80.617188 11.359375 80.082031 C 9.425781 79.386719 8.316406 77.027344 8.839844 74.746094 C 9.917969 70.070312 17.507812 53.296875 17.507812 53.296875 C 17.507812 53.296875 17.0625 71.566406 15.832031 76.921875 Z M 15.832031 76.921875 "/>
<path style=" stroke:none;fill-rule:nonzero;fill:rgb(0%,73.72549%,83.137255%);fill-opacity:1;" d="M 25.796875 90.21875 C 25.292969 92.53125 23.289062 93.941406 21.304688 93.378906 C 19.367188 92.6875 18.246094 90.320312 18.777344 88.03125 C 19.851562 83.355469 27.496094 66.582031 27.496094 66.582031 C 27.496094 66.582031 27.03125 84.863281 25.796875 90.21875 Z M 25.796875 90.21875 "/>
<path style=" stroke:none;fill-rule:nonzero;fill:rgb(0%,73.72549%,83.137255%);fill-opacity:1;" d="M 41.195312 76.921875 C 40.917969 78.449219 39.941406 79.675781 38.65625 80.105469 C 37.371094 80.539062 35.988281 80.109375 35.058594 78.988281 C 34.125 77.867188 33.796875 76.234375 34.203125 74.746094 C 35.28125 70.070312 42.921875 53.296875 42.921875 53.296875 C 42.921875 53.296875 42.425781 71.566406 41.195312 76.921875 Z M 41.195312 76.921875 "/>
<path style=" stroke:none;fill-rule:nonzero;fill:rgb(0%,73.72549%,83.137255%);fill-opacity:1;" d="M 51.800781 90.386719 C 51.511719 91.90625 50.53125 93.117188 49.253906 93.539062 C 47.972656 93.964844 46.601562 93.535156 45.671875 92.417969 C 44.742188 91.304688 44.410156 89.6875 44.808594 88.199219 C 45.875 83.523438 53.464844 66.753906 53.464844 66.753906 C 53.464844 66.753906 53.019531 85.039062 51.800781 90.386719 Z M 51.800781 90.386719 "/>
<path style=" stroke:none;fill-rule:nonzero;fill:rgb(100%,89.411765%,12.156863%);fill-opacity:1;" d="M 61.96875 59.367188 L 75.324219 59.367188 L 69.890625 69.808594 L 75.496094 69.808594 L 63.992188 87.171875 L 66.277344 76.832031 L 55.519531 76.832031 Z M 61.96875 59.367188 "/>
</g>
</svg>
